HIERARCHY
ROOT newVegas:Hips
{
	OFFSET 0.000000 96.479958 0.000000
	CHANNELS 6 Xposition Yposition Zposition Xrotation Yrotation Zrotation
	JOINT newVegas:Pelvis
	{
		OFFSET 0.000000 0.000000 0.000000
		CHANNELS 3 Xrotation Yrotation Zrotation
		JOINT newVegas:LeftUpLeg
		{
			OFFSET 18.735201 -5.666702 -4.541200
			CHANNELS 3 Xrotation Yrotation Zrotation
			JOINT newVegas:LeftLeg
			{
				OFFSET -0.021200 -31.938179 0.493100
				CHANNELS 3 Xrotation Yrotation Zrotation
				JOINT newVegas:LeftFoot
				{
					OFFSET 0.021200 -31.938179 -4.336299
					CHANNELS 3 Xrotation Yrotation Zrotation
					JOINT newVegas:LeftToeBase
					{
						OFFSET 0.943001 -26.722000 15.023500
						CHANNELS 3 Xrotation Yrotation Zrotation
						End Site
						{
							OFFSET 0.000000 30.670183 0.000000
						}
					}
				}
				JOINT newVegas:Left_PantLeg
				{
					OFFSET 0.663870 -9.044666 -1.108900
					CHANNELS 3 Xrotation Yrotation Zrotation
					End Site
					{
						OFFSET 1.415995 20.635357 0.000000
					}
				}
			}
		}
		JOINT newVegas:RightUpLeg
		{
			OFFSET -18.735201 -5.666702 -4.541200
			CHANNELS 3 Xrotation Yrotation Zrotation
			JOINT newVegas:RightLeg
			{
				OFFSET 0.018946 -31.938133 0.493100
				CHANNELS 3 Xrotation Yrotation Zrotation
				JOINT newVegas:RightFoot
				{
					OFFSET -0.018946 -31.938126 -4.336299
					CHANNELS 3 Xrotation Yrotation Zrotation
					JOINT newVegas:RightToeBase
					{
						OFFSET -0.943001 -26.722004 15.023500
						CHANNELS 3 Xrotation Yrotation Zrotation
						End Site
						{
							OFFSET 0.000000 30.670187 0.000000
						}
					}
				}
				JOINT newVegas:Right_PantLeg
				{
					OFFSET -0.661674 -9.044716 -1.108900
					CHANNELS 3 Xrotation Yrotation Zrotation
					End Site
					{
						OFFSET -1.415958 20.635269 0.000000
					}
				}
			}
		}
	}
	JOINT newVegas:Spine
	{
		OFFSET 0.000000 10.199997 -0.299500
		CHANNELS 3 Xrotation Yrotation Zrotation
		JOINT newVegas:Spine1
		{
			OFFSET 0.000000 11.900002 -1.516600
			CHANNELS 3 Xrotation Yrotation Zrotation
			JOINT newVegas:Spine2
			{
				OFFSET 0.000000 13.600006 -2.842500
				CHANNELS 3 Xrotation Yrotation Zrotation
				JOINT newVegas:Neck
				{
					OFFSET 0.000000 9.624100 -2.890100
					CHANNELS 3 Xrotation Yrotation Zrotation
					JOINT newVegas:Head
					{
						OFFSET 0.000000 14.068802 -1.351900
						CHANNELS 3 Xrotation Yrotation Zrotation
						JOINT newVegas:Hair_Back
						{
							OFFSET 0.000000 3.231903 -17.524799
							CHANNELS 3 Xrotation Yrotation Zrotation
							End Site
							{
								OFFSET 0.000000 19.849884 0.000000
							}
						}
						JOINT newVegas:Hair_Front
						{
							OFFSET 0.000000 31.260406 4.573800
							CHANNELS 3 Xrotation Yrotation Zrotation
							JOINT newVegas:Hair_Front1
							{
								OFFSET 0.000000 2.284103 11.993300
								CHANNELS 3 Xrotation Yrotation Zrotation
								JOINT newVegas:Hair_Front2
								{
									OFFSET 0.000000 2.284103 11.993300
									CHANNELS 3 Xrotation Yrotation Zrotation
									End Site
									{
										OFFSET 0.000000 12.208862 0.000000
									}
								}
							}
						}
						JOINT newVegas:Jowel
						{
							OFFSET 0.000000 -7.458206 6.864100
							CHANNELS 3 Xrotation Yrotation Zrotation
							End Site
							{
								OFFSET 0.000000 19.849884 0.000000
							}
						}
					}
				}
				JOINT newVegas:LeftShoulder
				{
					OFFSET 15.263000 10.923401 -0.547700
					CHANNELS 3 Xrotation Yrotation Zrotation
					JOINT newVegas:LeftArm
					{
						OFFSET 25.438599 -2.830597 -13.032500
						CHANNELS 3 Xrotation Yrotation Zrotation
						JOINT newVegas:LeftForeArm
						{
							OFFSET 29.960503 0.000000 0.000000
							CHANNELS 3 Xrotation Yrotation Zrotation
							JOINT newVegas:LeftHand
							{
								OFFSET 27.849251 0.000000 0.000000
								CHANNELS 3 Xrotation Yrotation Zrotation
								JOINT newVegas:LeftHandThumb1
								{
									OFFSET 4.487587 -3.305161 6.305391
									CHANNELS 3 Xrotation Yrotation Zrotation
									JOINT newVegas:LeftHandThumb2
									{
										OFFSET 5.480453 -3.164139 3.164143
										CHANNELS 3 Xrotation Yrotation Zrotation
										JOINT newVegas:LeftHandThumb3
										{
											OFFSET 5.159721 -2.978973 2.978967
											CHANNELS 3 Xrotation Yrotation Zrotation
											End Site
											{
												OFFSET 2.494507 5.926697 1.738678
											}
										}
									}
								}
								JOINT newVegas:LeftHandIndex1
								{
									OFFSET 18.578728 -0.527832 5.208049
									CHANNELS 3 Xrotation Yrotation Zrotation
									JOINT newVegas:LeftHandIndex2
									{
										OFFSET 3.192009 0.000000 0.000000
										CHANNELS 3 Xrotation Yrotation Zrotation
										JOINT newVegas:LeftHandIndex3
										{
											OFFSET 3.835129 0.000000 0.000000
											CHANNELS 3 Xrotation Yrotation Zrotation
											End Site
											{
												OFFSET -0.034599 3.816971 0.371180
											}
										}
									}
								}
								JOINT newVegas:LeftHandMiddle1
								{
									OFFSET 18.476105 0.000000 0.000000
									CHANNELS 3 Xrotation Yrotation Zrotation
									JOINT newVegas:LeftHandMiddle2
									{
										OFFSET 3.324875 0.000000 0.000000
										CHANNELS 3 Xrotation Yrotation Zrotation
										JOINT newVegas:LeftHandMiddle3
										{
											OFFSET 4.596550 0.000000 0.000000
											CHANNELS 3 Xrotation Yrotation Zrotation
											End Site
											{
												OFFSET 0.057701 4.578827 0.399218
											}
										}
									}
								}
								JOINT newVegas:LeftHandRing1
								{
									OFFSET 17.732719 0.121887 -4.201567
									CHANNELS 3 Xrotation Yrotation Zrotation
									JOINT newVegas:LeftHandRing2
									{
										OFFSET 2.733170 0.000000 0.000000
										CHANNELS 3 Xrotation Yrotation Zrotation
										JOINT newVegas:LeftHandRing3
										{
											OFFSET 3.178268 0.000000 0.000000
											CHANNELS 3 Xrotation Yrotation Zrotation
											End Site
											{
												OFFSET 0.119102 3.170624 0.185394
											}
										}
									}
								}
								JOINT newVegas:LeftHandPinky1
								{
									OFFSET 15.989624 -0.606689 -7.535461
									CHANNELS 3 Xrotation Yrotation Zrotation
									JOINT newVegas:LeftHandPinky2
									{
										OFFSET 2.538986 0.000000 0.000000
										CHANNELS 3 Xrotation Yrotation Zrotation
										JOINT newVegas:LeftHandPinky3
										{
											OFFSET 2.593102 0.000000 0.000000
											CHANNELS 3 Xrotation Yrotation Zrotation
											End Site
											{
												OFFSET -0.150902 2.584198 0.152708
											}
										}
									}
								}
							}
							JOINT newVegas:Left_Sleeve
							{
								OFFSET 0.267448 -0.649796 0.577675
								CHANNELS 3 Xrotation Yrotation Zrotation
								End Site
								{
									OFFSET 0.000000 15.991241 0.000000
								}
							}
							JOINT newVegas:Left_CapeC
							{
								OFFSET 15.715958 -8.608795 -6.935905
								CHANNELS 3 Xrotation Yrotation Zrotation
								JOINT newVegas:Left_CapeC1
								{
									OFFSET 0.000000 -8.688499 0.000000
									CHANNELS 3 Xrotation Yrotation Zrotation
									End Site
									{
										OFFSET 0.000000 8.688499 0.000000
									}
								}
							}
						}
						JOINT newVegas:Left_CapeB
						{
							OFFSET 26.118385 -8.608795 -7.079235
							CHANNELS 3 Xrotation Yrotation Zrotation
							JOINT newVegas:Left_CapeB1
							{
								OFFSET 0.000000 -8.688499 0.000000
								CHANNELS 3 Xrotation Yrotation Zrotation
								End Site
								{
									OFFSET 0.000000 8.688499 0.000000
								}
							}
						}
						JOINT newVegas:Left_CapeA
						{
							OFFSET 5.115639 -8.608795 -10.395809
							CHANNELS 3 Xrotation Yrotation Zrotation
							JOINT newVegas:Left_CapeA1
							{
								OFFSET 0.000000 -8.688499 0.000000
								CHANNELS 3 Xrotation Yrotation Zrotation
								End Site
								{
									OFFSET 0.000000 8.688499 0.000000
								}
							}
						}
					}
				}
				JOINT newVegas:RightShoulder
				{
					OFFSET -15.263000 10.923401 -0.547700
					CHANNELS 3 Xrotation Yrotation Zrotation
					JOINT newVegas:RightArm
					{
						OFFSET -25.438599 -2.830597 -13.032500
						CHANNELS 3 Xrotation Yrotation Zrotation
						JOINT newVegas:RightForeArm
						{
							OFFSET -29.960503 0.000000 0.000000
							CHANNELS 3 Xrotation Yrotation Zrotation
							JOINT newVegas:RightHand
							{
								OFFSET -27.849251 0.000000 0.000000
								CHANNELS 3 Xrotation Yrotation Zrotation
								JOINT newVegas:RightHandThumb1
								{
									OFFSET -4.487587 -3.305161 6.305391
									CHANNELS 3 Xrotation Yrotation Zrotation
									JOINT newVegas:RightHandThumb2
									{
										OFFSET -5.480453 -3.164139 3.164143
										CHANNELS 3 Xrotation Yrotation Zrotation
										JOINT newVegas:RightHandThumb3
										{
											OFFSET -5.159721 -2.978973 2.978967
											CHANNELS 3 Xrotation Yrotation Zrotation
											End Site
											{
												OFFSET -2.494507 5.926697 1.738678
											}
										}
									}
								}
								JOINT newVegas:RightHandIndex1
								{
									OFFSET -18.578728 -0.527832 5.208049
									CHANNELS 3 Xrotation Yrotation Zrotation
									JOINT newVegas:RightHandIndex2
									{
										OFFSET -3.192009 0.000000 0.000000
										CHANNELS 3 Xrotation Yrotation Zrotation
										JOINT newVegas:RightHandIndex3
										{
											OFFSET -3.835129 0.000000 0.000000
											CHANNELS 3 Xrotation Yrotation Zrotation
											End Site
											{
												OFFSET 0.034599 3.816971 0.371180
											}
										}
									}
								}
								JOINT newVegas:RightHandMiddle1
								{
									OFFSET -18.476105 0.000000 0.000000
									CHANNELS 3 Xrotation Yrotation Zrotation
									JOINT newVegas:RightHandMiddle2
									{
										OFFSET -3.324875 0.000000 0.000000
										CHANNELS 3 Xrotation Yrotation Zrotation
										JOINT newVegas:RightHandMiddle3
										{
											OFFSET -4.596550 0.000000 0.000000
											CHANNELS 3 Xrotation Yrotation Zrotation
											End Site
											{
												OFFSET -0.057701 4.578827 0.399218
											}
										}
									}
								}
								JOINT newVegas:RightHandRing1
								{
									OFFSET -17.732719 0.121887 -4.201567
									CHANNELS 3 Xrotation Yrotation Zrotation
									JOINT newVegas:RightHandRing2
									{
										OFFSET -2.733170 0.000000 0.000000
										CHANNELS 3 Xrotation Yrotation Zrotation
										JOINT newVegas:RightHandRing3
										{
											OFFSET -3.178268 0.000000 0.000000
											CHANNELS 3 Xrotation Yrotation Zrotation
											End Site
											{
												OFFSET -0.119102 3.170624 0.185394
											}
										}
									}
								}
								JOINT newVegas:RightHandPinky1
								{
									OFFSET -15.989624 -0.606689 -7.535461
									CHANNELS 3 Xrotation Yrotation Zrotation
									JOINT newVegas:RightHandPinky2
									{
										OFFSET -2.538986 0.000000 0.000000
										CHANNELS 3 Xrotation Yrotation Zrotation
										JOINT newVegas:RightHandPinky3
										{
											OFFSET -2.593102 0.000000 0.000000
											CHANNELS 3 Xrotation Yrotation Zrotation
											End Site
											{
												OFFSET 0.150902 2.584198 0.152708
											}
										}
									}
								}
							}
							JOINT newVegas:Right_CapeC
							{
								OFFSET -15.715958 -8.608795 -6.935905
								CHANNELS 3 Xrotation Yrotation Zrotation
								JOINT newVegas:Right_CapeC1
								{
									OFFSET 0.000000 -8.688499 0.000000
									CHANNELS 3 Xrotation Yrotation Zrotation
									End Site
									{
										OFFSET 0.000000 8.688499 0.000000
									}
								}
							}
							JOINT newVegas:Right_Sleeve
							{
								OFFSET -0.267448 -0.649994 0.577675
								CHANNELS 3 Xrotation Yrotation Zrotation
								End Site
								{
									OFFSET 0.000000 15.991302 0.000000
								}
							}
						}
						JOINT newVegas:Right_CapeA
						{
							OFFSET -5.115540 -8.608795 -10.395824
							CHANNELS 3 Xrotation Yrotation Zrotation
							JOINT newVegas:Right_CapeA1
							{
								OFFSET 0.000000 -8.688499 0.000000
								CHANNELS 3 Xrotation Yrotation Zrotation
								End Site
								{
									OFFSET 0.000000 8.688499 0.000000
								}
							}
						}
						JOINT newVegas:Right_CapeB
						{
							OFFSET -26.118187 -8.608795 -7.079266
							CHANNELS 3 Xrotation Yrotation Zrotation
							JOINT newVegas:Right_CapeB1
							{
								OFFSET 0.000000 -8.688499 0.000000
								CHANNELS 3 Xrotation Yrotation Zrotation
								End Site
								{
									OFFSET 0.000000 8.688499 0.000000
								}
							}
						}
					}
				}
				JOINT newVegas:Left_Collar
				{
					OFFSET 18.625099 8.655502 8.828100
					CHANNELS 3 Xrotation Yrotation Zrotation
					JOINT newVegas:Left_Collar1
					{
						OFFSET 14.783401 10.540405 -1.259500
						CHANNELS 3 Xrotation Yrotation Zrotation
						End Site
						{
							OFFSET 0.000000 18.199875 0.000000
						}
					}
				}
				JOINT newVegas:Collar_Back
				{
					OFFSET 0.000000 15.630707 -20.132601
					CHANNELS 3 Xrotation Yrotation Zrotation
					End Site
					{
						OFFSET 0.000000 22.523010 0.000000
					}
				}
				JOINT newVegas:Left_Peck
				{
					OFFSET 17.239599 -5.132599 25.482599
					CHANNELS 3 Xrotation Yrotation Zrotation
					End Site
					{
						OFFSET 0.000000 22.523010 0.000000
					}
				}
				JOINT newVegas:Right_Peck
				{
					OFFSET -17.239599 -5.132202 25.482599
					CHANNELS 3 Xrotation Yrotation Zrotation
					End Site
					{
						OFFSET 0.000000 22.523010 0.000000
					}
				}
				JOINT newVegas:Right_Collar
				{
					OFFSET -18.625099 8.655792 8.828100
					CHANNELS 3 Xrotation Yrotation Zrotation
					JOINT newVegas:Right_Collar1
					{
						OFFSET -14.783401 10.539993 -1.259500
						CHANNELS 3 Xrotation Yrotation Zrotation
						End Site
						{
							OFFSET 0.000000 18.199631 0.000000
						}
					}
				}
			}
		}
		JOINT newVegas:Belly
		{
			OFFSET 0.000000 -6.540398 9.014299
			CHANNELS 3 Xrotation Yrotation Zrotation
			End Site
			{
				OFFSET 0.000000 11.566666 0.000000
			}
		}
	}
	JOINT newVegas:ElvisFacialAnim_Joint
	{
		OFFSET 1.000000 -95.330101 -8.825800
		CHANNELS 3 Xrotation Yrotation Zrotation
		End Site
		{
			OFFSET 0.000000 35.315800 0.000000
		}
	}
}
MOTION
Frames: 4
Frame Time: 0.033333
-1.127132 51.515404 1.376083 30.063583 -21.583094 8.517706 0.000001 -0.000001 -0.000000 -107.342474 -18.970751 24.773106 130.490723 -0.370838 -2.501296 -43.302969 -0.325366 -16.557055 0.000000 0.000000 0.000000 -0.000000 0.000001 0.000002 -110.340169 15.742174 -5.056647 133.291702 5.796240 -0.473074 -34.393906 -3.436248 9.452173 -0.000000 -0.000001 0.000001 0.000001 0.000001 -0.000003 12.864536 3.500233 0.010725 7.166893 0.422970 -2.615002 7.076743 1.643285 4.137349 -0.489020 1.663411 -3.466507 -0.489046 1.663413 -3.466503 -0.000001 -0.000000 0.000001 -0.488956 1.663416 -3.466508 -0.488933 1.663397 -3.466501 0.000001 -0.000000 -0.000000 -0.000001 -0.000000 0.000001 8.681257 -7.822566 14.948084 -86.305669 -12.324750 -32.652443 4.990783 -43.314802 8.166114 -58.781612 -1.451596 7.666858 17.551640 -5.699269 -12.932236 10.850497 26.127687 8.644802 -0.000002 -0.000000 -0.000003 13.980939 1.201534 -55.004336 0.381520 1.169609 -65.441887 -0.000000 -0.000001 0.000003 7.504738 1.174301 -63.778503 1.807965 1.478076 -64.568039 -0.000000 0.000001 0.000003 8.574668 2.177903 -75.148924 -0.201113 0.998972 -57.855131 0.000000 -0.000000 -0.000004 10.030170 13.637011 -84.750217 0.869745 0.055020 -64.595080 0.000000 0.000000 -0.000002 -0.000000 0.000001 -0.000000 -0.000000 0.000001 -0.000000 -0.000001 0.000000 0.000000 0.000001 0.000001 -0.000002 0.000001 0.000000 0.000000 0.000001 0.000001 -0.000002 -0.000000 0.000001 -0.000003 8.620095 12.715590 14.282027 -9.158898 -2.823509 38.633876 3.786414 23.911693 -1.776318 0.370956 7.530900 -7.147243 15.788276 -2.733857 -17.205737 -2.197734 -31.115914 7.360395 -0.000000 -0.000001 0.000001 2.374091 -3.658679 8.485748 -2.146931 -2.474006 18.675288 -0.000001 -0.000000 -0.000001 -1.985253 -5.700376 13.660482 0.282757 -5.095769 26.990008 -0.000000 0.000002 0.000001 -3.262988 -8.561959 11.767243 4.032247 -4.062832 33.264039 -0.000000 0.000001 0.000000 -6.473808 -11.341261 23.261029 10.720300 -2.557830 34.823866 -0.000002 0.000004 -0.000006 -0.000000 0.000003 -0.000000 -0.000000 0.000001 0.000001 -0.000000 0.000002 0.000002 0.000000 0.000003 0.000000 0.000000 0.000003 -0.000000 0.000000 0.000003 0.000000 0.000000 0.000003 0.000000 -0.000001 0.000000 -0.000001 -0.000001 0.000000 -0.000001 -0.000001 0.000000 -0.000001 -0.000001 0.000000 -0.000001 -0.000001 0.000000 -0.000001 -0.000001 0.000000 -0.000001 -0.000001 0.000000 -0.000001 -0.000002 -0.000000 -0.000000 0.000001 -0.000001 -0.000000 
-1.101455 51.289696 1.414532 29.643062 -21.265639 8.039365 -0.000000 -0.000000 -0.000001 -107.900146 -19.298237 24.575956 130.970353 -0.672522 -2.449053 -43.057140 -0.497760 -16.195811 0.000000 -0.000000 -0.000000 -0.000002 0.000001 0.000000 -109.483220 15.742999 -4.950535 133.840357 5.218555 -0.480189 -35.550025 -3.669386 9.746958 0.000001 -0.000000 0.000001 0.000004 0.000000 -0.000001 12.859962 3.500684 0.050336 7.290861 0.405673 -2.612616 7.199611 1.626612 4.141065 -0.461649 1.692924 -3.488314 -0.461632 1.692927 -3.488313 -0.000001 -0.000000 0.000000 -0.461596 1.692941 -3.488320 -0.461636 1.692905 -3.488309 -0.000002 0.000000 0.000000 -0.000001 -0.000000 0.000000 8.417218 -7.731233 14.967106 -85.359394 -8.229398 -31.952359 5.419639 -44.841964 9.305154 -58.662213 -1.212093 8.505741 17.558637 -5.678711 -12.934294 10.848456 26.122279 8.644538 0.000002 -0.000000 -0.000003 13.980939 1.201534 -55.004343 0.381469 1.169638 -65.441907 -0.000000 -0.000002 -0.000000 7.504739 1.174301 -63.778503 1.807964 1.478077 -64.568039 -0.000000 0.000001 -0.000001 8.574668 2.177903 -75.148924 -0.201109 0.998971 -57.855131 0.000001 -0.000002 0.000001 10.030172 13.637011 -84.750217 0.869743 0.055021 -64.595080 -0.000001 -0.000003 0.000001 -0.000001 0.000001 -0.000000 -0.000001 0.000001 -0.000000 -0.000002 0.000001 0.000000 -0.000001 -0.000003 -0.000001 -0.000002 -0.000004 -0.000001 -0.000001 -0.000003 -0.000001 -0.000001 -0.000003 -0.000002 8.534432 12.640437 14.409922 -9.127149 -2.953440 38.643240 4.089884 23.855588 -1.980311 0.381314 7.700653 -6.833014 15.801287 -2.850560 -17.231968 -2.073013 -31.259228 7.398998 0.000000 -0.000003 0.000001 2.201417 -3.223108 7.774964 -2.158207 -2.455709 17.731753 0.000001 0.000001 -0.000000 -2.578405 -4.426105 13.807898 0.323138 -5.096844 27.442363 0.000000 0.000001 -0.000003 -3.946741 -7.177493 11.983792 4.064839 -4.030402 33.726497 -0.000001 -0.000003 -0.000000 -7.157914 -9.906686 23.609763 10.740906 -2.468996 35.294101 0.000001 0.000003 0.000001 -0.000001 0.000000 -0.000000 -0.000000 0.000000 0.000000 -0.000001 0.000000 -0.000000 0.000000 0.000003 -0.000001 -0.000000 0.000003 -0.000001 0.000000 0.000003 -0.000001 -0.000000 0.000003 0.000000 0.000001 -0.000000 0.000002 0.000001 -0.000000 0.000002 0.000001 -0.000000 0.000002 0.000001 -0.000000 0.000002 0.000001 -0.000000 0.000002 0.000001 -0.000000 0.000002 0.000001 -0.000000 0.000002 -0.000000 0.000000 -0.000001 -0.000000 -0.000000 -0.000001 
-1.051716 51.052505 1.394161 29.160830 -20.787488 7.579935 -0.000001 0.000000 0.000000 -108.765797 -19.412864 24.042616 131.384262 -0.739696 -2.278915 -42.504677 -0.622155 -15.875475 0.000000 -0.000000 0.000000 -0.000001 -0.000001 -0.000000 -108.602822 15.783956 -4.460372 134.548388 4.169193 -0.481056 -36.989388 -3.920472 10.054741 -0.000002 -0.000001 0.000000 0.000001 0.000001 0.000000 12.762384 3.487259 0.099640 7.440006 0.377383 -2.623569 7.349284 1.594120 4.136874 -0.371058 1.990610 -3.594680 -0.371061 1.990612 -3.594680 -0.000000 0.000000 -0.000000 -0.370999 1.990616 -3.594685 -0.371109 1.990591 -3.594676 0.000002 -0.000000 0.000000 -0.000000 0.000000 -0.000000 8.319662 -7.673257 14.788555 -84.372330 -3.770074 -31.028996 5.750843 -46.614054 10.429143 -58.536436 -0.803880 9.256796 17.556301 -5.685569 -12.933589 10.839457 26.097950 8.643412 -0.000000 -0.000003 -0.000005 13.980939 1.201535 -55.004343 0.381503 1.169612 -65.441907 0.000000 0.000001 -0.000001 7.504738 1.174302 -63.778503 1.807965 1.478076 -64.568039 -0.000000 0.000000 0.000001 8.574669 2.177904 -75.148924 -0.201113 0.998972 -57.855131 -0.000000 0.000001 -0.000000 10.030170 13.637011 -84.750217 0.869744 0.055021 -64.595073 0.000001 0.000000 -0.000002 -0.000001 0.000000 -0.000000 -0.000001 0.000000 -0.000000 -0.000001 0.000000 -0.000000 0.000000 0.000002 0.000002 0.000000 0.000001 0.000001 0.000000 0.000002 0.000002 0.000000 0.000002 0.000001 8.429708 12.609559 14.547589 -9.057618 -3.148343 38.741195 4.368891 23.817821 -2.167565 0.382766 7.804080 -6.514209 15.814316 -2.966985 -17.258136 -1.950305 -31.394534 7.440385 0.000006 -0.000005 -0.000004 2.001124 -2.707759 7.018109 -2.170896 -2.436885 16.758011 0.000000 -0.000001 0.000001 -3.304240 -2.965486 14.075029 0.373689 -5.097439 28.008946 -0.000000 0.000001 -0.000001 -4.774074 -5.595755 12.324578 4.105173 -3.989536 34.303826 0.000001 0.000001 -0.000001 -7.986585 -8.273541 24.083916 10.765567 -2.358233 35.879294 0.000000 -0.000000 -0.000003 -0.000000 0.000000 0.000002 0.000000 -0.000000 0.000001 -0.000000 0.000000 0.000001 -0.000001 -0.000004 0.000001 -0.000001 -0.000003 0.000002 -0.000001 -0.000004 0.000001 -0.000001 -0.000003 0.000003 -0.000002 0.000001 -0.000001 -0.000002 0.000001 -0.000001 -0.000002 0.000001 -0.000001 -0.000002 0.000001 -0.000001 -0.000002 0.000001 -0.000001 -0.000002 0.000001 -0.000001 -0.000002 0.000001 -0.000001 -0.000001 -0.000000 0.000000 -0.000001 0.000000 0.000000 
-1.009075 50.790359 1.316544 28.702801 -20.090219 7.189256 -0.000002 -0.000000 0.000001 -109.985887 -19.366703 23.226499 131.677919 -0.688267 -2.031736 -41.596340 -0.718894 -15.621920 0.000000 -0.000000 -0.000000 -0.000001 -0.000001 -0.000000 -107.778951 15.870967 -3.852981 135.426874 1.621561 -0.580602 -38.604912 -3.285876 11.143119 -0.000001 0.000000 -0.000001 0.000001 0.000003 -0.000000 12.486097 3.434525 0.182954 7.571475 0.320532 -2.726640 7.483753 1.510305 4.045587 -0.155637 2.603191 -3.860079 -0.155625 2.603193 -3.860084 0.000001 0.000000 -0.000001 -0.155585 2.603200 -3.860084 -0.155666 2.603186 -3.860074 0.000003 -0.000000 -0.000000 0.000001 0.000000 -0.000001 8.376640 -7.874021 14.531407 -83.167518 0.867767 -29.661684 5.527128 -48.577142 11.104691 -58.387312 -0.301068 10.004679 17.552090 -5.698059 -12.932361 10.841310 26.102961 8.643618 -0.000004 0.000001 -0.000006 13.980936 1.201535 -55.004336 0.381467 1.169605 -65.441907 0.000000 0.000002 -0.000001 7.504738 1.174301 -63.778510 1.807965 1.478076 -64.568039 0.000000 0.000000 -0.000002 8.574668 2.177904 -75.148931 -0.201112 0.998970 -57.855131 -0.000000 -0.000001 0.000002 10.030170 13.637015 -84.750217 0.869743 0.055020 -64.595080 0.000001 -0.000003 -0.000002 -0.000001 0.000000 0.000000 -0.000001 0.000000 0.000000 -0.000001 -0.000000 0.000000 0.000000 0.000002 -0.000000 0.000000 0.000001 -0.000001 0.000000 0.000002 -0.000000 0.000000 0.000002 -0.000001 8.240617 12.774982 14.737474 -8.836097 -3.591179 39.130560 4.571683 23.797467 -2.303009 0.353217 7.732366 -6.133957 15.827211 -3.083110 -17.284251 -1.826397 -31.533382 7.480573 0.000001 -0.000000 -0.000000 1.820555 -2.227700 6.287508 -2.182958 -2.418252 15.798362 0.000000 -0.000001 0.000000 -4.021888 -1.621415 14.325658 0.419323 -5.096776 28.522021 -0.000001 -0.000001 -0.000002 -5.586239 -4.138993 12.659073 4.141446 -3.952114 34.827336 0.000000 0.000001 0.000002 -8.803316 -6.766327 24.529627 10.786978 -2.257478 36.410489 0.000000 0.000005 0.000002 -0.000001 0.000001 -0.000001 -0.000001 -0.000001 -0.000002 -0.000001 0.000001 -0.000000 0.000000 -0.000002 -0.000000 -0.000000 -0.000001 0.000001 0.000000 -0.000002 -0.000000 -0.000000 -0.000001 0.000001 -0.000002 0.000000 -0.000001 -0.000002 0.000000 -0.000001 -0.000002 0.000000 -0.000001 -0.000002 0.000000 -0.000001 -0.000002 0.000000 -0.000001 -0.000002 0.000000 -0.000001 -0.000002 0.000000 -0.000001 0.000003 0.000001 -0.000000 -0.000002 -0.000000 0.000001 
